<?xml version="1.0" standalone="no"?>
<!DOCTYPE svg PUBLIC "-//W3C//DTD SVG 20010904//EN"
 "http://www.w3.org/TR/2001/REC-SVG-20010904/DTD/svg10.dtd">
<svg version="1.0" xmlns="http://www.w3.org/2000/svg"
 width="30pt" height="30pt" viewBox="0 0 118 118"
 preserveAspectRatio="xMidYMid meet">

<g transform="translate(0.000000,118.000000) scale(0.100000,-0.100000)">
<path fill="#F8CDAF" d="M450 1147 c-162 -48 -290 -155 -359 -300 -46 -97 -61 -161 -61 -264
0 -242 157 -460 392 -545 60 -22 78 -23 406 -26 l342 -3 0 283 0 282 -70 -69
-70 -69 0 -148 0 -148 -242 0 c-264 0 -307 6 -397 55 -60 33 -150 124 -179
181 -81 159 -64 357 42 487 54 66 126 121 196 149 51 21 75 23 318 26 l262 3
0 -153 0 -154 70 -69 70 -69 0 287 0 287 -322 -1 c-304 0 -327 -1 -398 -22z"/>
<path fill="black" d="M522 747 c-39 -9 -67 -25 -112 -65 -37 -33 -77 -58 -106 -67 -69 -21
-84 -39 -84 -101 0 -65 7 -84 30 -84 12 0 21 10 25 30 9 43 58 80 105 80 47 0
96 -37 105 -80 l7 -30 99 0 99 0 0 26 c0 15 12 38 29 55 59 59 161 29 178 -51
5 -26 10 -31 32 -28 25 3 26 6 29 76 l3 73 -68 69 c-37 38 -86 76 -107 85 -50
21 -196 28 -264 12z m106 -80 l3 -47 -108 0 -108 0 41 41 c34 34 50 42 95 49
30 4 59 6 64 5 6 -1 11 -23 13 -48z m152 20 c24 -12 50 -33 58 -45 l14 -22
-91 0 -91 0 0 45 c0 44 0 45 33 45 19 0 53 -10 77 -23z"/>
<path fill="black"  d="M325 495 c-44 -43 -29 -112 28 -134 31 -12 53 -6 85 22 49 45 11 137
-58 137 -19 0 -40 -9 -55 -25z m83 -27 c34 -34 -6 -90 -48 -68 -35 19 -20 80
20 80 9 0 21 -5 28 -12z"/>
<path fill="black" d="M749 507 c-43 -33 -49 -84 -15 -123 46 -54 127 -30 142 43 12 62 -77
118 -127 80z m83 -52 c9 -21 8 -28 -7 -45 -23 -25 -37 -25 -60 0 -15 17 -16
24 -7 45 16 34 58 34 74 0z"/>
</g>
</svg>
